<?xml version="1.0" encoding="utf-8"?>
<!DOCTYPE svg PUBLIC "-//W3C//DTD SVG 1.1//EN" "http://www.w3.org/Graphics/SVG/1.1/DTD/svg11.dtd">
<svg version="1.1" id="icon" xmlns="http://www.w3.org/2000/svg" xmlns:xlink="http://www.w3.org/1999/xlink" x="0px" y="0px"
	 width="15px" height="22px" viewBox="0 0 15 22" enable-background="new 0 0 15 22" xml:space="preserve">
<path fill="#DDDDDD" d="M4,2C3.45,2,3,2.45,3,3v16c0,0.549,0.45,1,1,1h7c0.551,0,1-0.451,1-1V3c0-0.55-0.449-1-1-1H4z M7,18.5
	C7,18.221,7.221,18,7.5,18S8,18.221,8,18.5S7.779,19,7.5,19S7,18.779,7,18.5z M4,4h7v13H4V4z"/>
<g>
	<polygon fill="#DDDDDD" points="7.5,12.788 2.935,17.353 1.146,15.565 5.712,10.999 1.146,6.436 2.935,4.646 7.5,9.211 
		12.064,4.646 13.854,6.436 9.288,10.999 13.854,15.565 12.064,17.353 	"/>
	<path fill="#FFFFFF" d="M12.064,4.999L13.5,6.436l-4.564,4.563l4.564,4.565l-1.436,1.435L7.5,12.435l-4.565,4.564L1.5,15.565
		l4.565-4.566L1.5,6.436L2.935,5L7.5,9.564L12.064,4.999 M12.064,4.292L11.71,4.646L7.5,8.857L3.289,4.646L2.935,4.292L2.582,4.646
		L1.146,6.081L0.793,6.436l0.354,0.354l4.212,4.21l-4.213,4.213l-0.354,0.354l0.354,0.354l1.435,1.436l0.354,0.354l0.354-0.354
		L7.5,13.142l4.211,4.211l0.354,0.354l0.354-0.354l1.435-1.434l0.354-0.354l-0.354-0.353l-4.211-4.213l4.211-4.211l0.354-0.354
		l-0.354-0.354l-1.435-1.435L12.064,4.292L12.064,4.292z"/>
</g>
</svg>
