<?xml version="1.0" encoding="utf-8"?>
<!DOCTYPE svg PUBLIC "-//W3C//DTD SVG 1.1//EN" "http://www.w3.org/Graphics/SVG/1.1/DTD/svg11.dtd">
<svg version="1.1" id="icon" xmlns="http://www.w3.org/2000/svg" xmlns:xlink="http://www.w3.org/1999/xlink" x="0px" y="0px"
	 width="18px" height="22.002px" viewBox="0 0 18 22.002" enable-background="new 0 0 18 22.002" xml:space="preserve">
<path fill="#454545" d="M14,2.001H4c-1.101,0-2,0.899-2,2v14c0,1.1,0.899,2,2,2h10c1.1,0,2-0.9,2-2v-14C16,2.9,15.1,2.001,14,2.001z
	 M9,19.096c-0.331,0-0.6-0.27-0.6-0.6s0.27-0.6,0.6-0.6s0.6,0.27,0.6,0.6S9.331,19.096,9,19.096z M14,17.001H4v-13h10V17.001z"/>
</svg>
