<?xml version="1.0" encoding="utf-8"?>
<!DOCTYPE svg PUBLIC "-//W3C//DTD SVG 1.1//EN" "http://www.w3.org/Graphics/SVG/1.1/DTD/svg11.dtd">
<svg version="1.1" id="icon" xmlns="http://www.w3.org/2000/svg" xmlns:xlink="http://www.w3.org/1999/xlink" x="0px" y="0px"
	 width="21px" height="22px" viewBox="0 0 21 22" enable-background="new 0 0 21 22" xml:space="preserve">
<path fill="#DDDDDD" d="M19,2H2C0.9,2,0,2.9,0,4v11c0,1.101,0.9,2,2,2h6v2H7v1h7v-1h-1v-2h6c1.1,0,2-0.899,2-2V4C21,2.9,20.1,2,19,2
	z M19,15H2V4h17V15z"/>
<g>
	<polygon fill="#DDDDDD" points="1.646,17.525 9.17,10 1.646,2.476 3.477,0.646 11,8.171 18.521,0.646 20.354,2.476 12.829,10
		20.354,17.525 18.521,19.354 11,11.832 3.478,19.354 	"/>
	<path fill="#FFFFFF" d="M18.521,1L20,2.476L12.477,10L20,17.525L18.521,19L11,11.478L3.478,19L2,17.525L9.524,10L2,2.476L3.477,1
		L11,8.524L18.521,1 M3.477,0.293L3.124,0.646L1.646,2.122L1.293,2.476L1.647,2.83L8.817,10l-7.17,7.171l-0.354,0.354l0.354,0.354
		l1.478,1.475l0.354,0.354l0.353-0.354L11,12.185l7.168,7.169l0.354,0.354l0.354-0.354l1.479-1.475l0.354-0.354l-0.354-0.354
		L13.184,10l7.17-7.171l0.354-0.354l-0.354-0.354l-1.478-1.476l-0.354-0.354l-0.354,0.354L11,7.817L3.831,0.646L3.477,0.293
		L3.477,0.293z"/>
</g>
</svg>
