<?xml version="1.0" encoding="utf-8"?>
<!DOCTYPE svg PUBLIC "-//W3C//DTD SVG 1.1//EN" "http://www.w3.org/Graphics/SVG/1.1/DTD/svg11.dtd">
<svg version="1.1" id="icon" xmlns="http://www.w3.org/2000/svg" xmlns:xlink="http://www.w3.org/1999/xlink" x="0px" y="0px"
	 width="18px" height="22.002px" viewBox="0 0 18 22.002" enable-background="new 0 0 18 22.002" xml:space="preserve">
<path fill="#DDDDDD" d="M14,2.001H4c-1.101,0-2,0.899-2,2v14c0,1.1,0.899,2,2,2h10c1.1,0,2-0.9,2-2v-14C16,2.9,15.1,2.001,14,2.001z
	 M9,19.096c-0.33,0-0.6-0.27-0.6-0.6s0.27-0.6,0.6-0.6s0.6,0.27,0.6,0.6S9.33,19.096,9,19.096z M14,17.001H4v-13h10V17.001z"/>
<g>
	<polygon fill="#DDDDDD" points="9.003,12.759 2.314,19.865 0.659,18.104 7.348,10.999 0.659,3.894 2.314,2.136 9.003,9.24 
		15.689,2.136 17.346,3.894 10.658,10.999 17.346,18.104 15.689,19.865 	"/>
	<path fill="#FFFFFF" d="M15.689,2.5l1.313,1.394l-6.688,7.105l6.688,7.105L15.689,19.5l-6.687-7.106L2.314,19.5l-1.313-1.396
		l6.688-7.105L1.002,3.894L2.314,2.5l6.688,7.105L15.689,2.5 M15.689,1.771l-0.362,0.387L9.005,8.875L2.679,2.157L2.314,1.771
		L1.951,2.157L0.638,3.551L0.314,3.894l0.323,0.343l6.367,6.763l-6.367,6.764l-0.322,0.342l0.322,0.345l1.313,1.396l0.363,0.387
		l0.364-0.387l6.324-6.721l6.321,6.721l0.365,0.387l0.362-0.387l1.312-1.396l0.322-0.345l-0.322-0.342l-6.364-6.764l6.364-6.763
		l0.322-0.343l-0.322-0.343l-1.312-1.394L15.689,1.771L15.689,1.771z"/>
</g>
</svg>
