<?xml version="1.0" encoding="utf-8"?>
<!DOCTYPE svg PUBLIC "-//W3C//DTD SVG 1.1//EN" "http://www.w3.org/Graphics/SVG/1.1/DTD/svg11.dtd">
<svg version="1.1" id="logo" xmlns="http://www.w3.org/2000/svg" xmlns:xlink="http://www.w3.org/1999/xlink" x="0px" y="0px"
	 width="140px" height="46px" viewBox="0 0 140 46" enable-background="new 0 0 140 46" xml:space="preserve">
<g>
	<path fill="#555555" d="M90.84,13.604l-5.564,16.94h-3.746l-4.094-13.686l-4.024,13.686h-3.744l-5.705-16.94h3.465l4.132,13.931
		h0.209l3.989-13.931h3.535l4.129,13.931h0.211l3.99-13.931H90.84z"/>
	<path fill="#555555" d="M107.359,30.545h-3.045v-1.609c-0.256,1.308-1.959,1.959-5.108,1.959c-2.334,0-3.949-0.354-4.849-1.066
		c-0.897-0.711-1.348-2.152-1.348-4.322c0-1.89,0.42-3.19,1.26-3.902c0.84-0.711,2.463-1.067,4.865-1.067h5.074V17.84
		c0-0.933-0.285-1.563-0.857-1.89c-0.572-0.327-1.649-0.49-3.235-0.49c-1.728,0-3.664,0.14-5.812,0.42v-2.311
		c2.312-0.21,4.398-0.314,6.266-0.314c2.847,0,4.689,0.345,5.529,1.033s1.26,2.117,1.26,4.287V30.545z M104.209,27.115v-4.62h-4.863
		c-1.447,0-2.352,0.187-2.713,0.56c-0.361,0.375-0.543,1.226-0.543,2.554c0,1.19,0.193,2.024,0.578,2.502
		c0.387,0.479,1.195,0.72,2.434,0.72h0.629c0.605,0,1.115-0.013,1.521-0.035c0.408-0.022,0.869-0.087,1.383-0.19
		c0.514-0.105,0.904-0.28,1.172-0.525C104.077,27.833,104.209,27.512,104.209,27.115z"/>
	<path fill="#555555" d="M121.956,15.95h-1.75c-1.447,0-2.517,0.187-3.203,0.56c-0.688,0.374-1.03,1.074-1.03,2.1v11.936h-3.15
		v-16.94h2.975v2.766c0-0.817,0.508-1.54,1.521-2.17c1.016-0.631,2.049-0.945,3.098-0.945h1.541L121.956,15.95L121.956,15.95z"/>
	<path fill="#555555" d="M140.54,25.016c0,1.026-0.149,1.914-0.455,2.659c-0.303,0.747-0.683,1.325-1.137,1.732
		c-0.455,0.409-1.058,0.729-1.804,0.963c-0.746,0.233-1.446,0.379-2.1,0.438c-0.652,0.058-1.447,0.086-2.381,0.086
		s-1.844-0.117-2.729-0.351c-0.89-0.231-1.447-0.595-1.683-1.085v8.365h-3.147v-24.22h3.115v1.82h0.032
		c0.256-1.446,2.185-2.17,5.774-2.17c2.265,0,3.914,0.473,4.953,1.417c1.039,0.945,1.56,2.071,1.56,3.377V25.016L140.54,25.016
		L140.54,25.016z M137.32,25.4v-6.23c0-1.563-0.338-2.562-1.016-2.993c-0.678-0.431-1.879-0.646-3.604-0.646s-2.9,0.21-3.519,0.63
		c-0.619,0.42-0.928,1.424-0.928,3.01V25.4c0,1.424,0.32,2.34,0.961,2.748c0.643,0.408,1.814,0.611,3.52,0.611
		c1.728,0,2.923-0.203,3.586-0.611C136.986,27.739,137.32,26.823,137.32,25.4z"/>
</g>
<g>
	<path fill="#555555" d="M19.013,25.23c0,0,7.87-2.841,7.94-7.792c-0.03-0.93-0.33-1.93-1-3c0,0-2.38-4.149-7.74-2.04
		c-2.18,0.86-12.1,5.021-17.67,17.511C1.393,29.939,8.591,30.07,19.013,25.23z M29.771,45.75c0,0,6.65-7,7.34-19.15
		c0,0,0.04-0.369,0.04-0.938c-0.01-2.23-0.61-7.04-5.39-7.53c-1.41-0.14-6.06-0.64-6.11,8.221c0.01,0.899,0.05,1.881,0.15,2.971
		C26.993,42.061,29.771,45.75,29.771,45.75z M46.501,28.67c0,0,0.03-0.23,0.04-0.66c-0.02-1.52-0.43-4.979-3.26-9.77
		c0,0-3.39-5.49-6.48-3.94c-0.55,0.28-1.52,1.24-1.56,2.88c0.02,1.311,0.64,3.021,2.48,5.14C42.042,27.29,46.501,28.67,46.501,28.67
		z M33.711,6.85c-0.28,0.2-0.45,0.55-0.48,1c0.03,0.771,0.48,1.811,1.58,2.98c2.65,2.81,4.76,3.33,6.04,2.46
		c0.55-0.37,0.78-0.8,0.81-1.25c-0.04-0.521-0.32-1.061-0.68-1.54C39.353,8.319,35.321,5.649,33.711,6.85z M30.111,2.52
		c-1.87-1.189-4.83-2.149-5.6-1.62c-0.25,0.17-0.45,0.601-0.47,1.19c0.04,1.28,0.88,3.18,3.59,4.81c1.22,0.74,4.3,1.351,5.45,0.221
		c0.19-0.181,0.31-0.44,0.33-0.75C33.353,5.41,32.453,4.01,30.111,2.52z M15.783,2.939c5.04,0,10.46,1.811,10.59,4.67
		c-0.02,0.4-0.14,0.82-0.37,1.261c0,0-2.51,4.02-8.54,1.55c-2.78-1.13-8.38-3.82-10.75-5.521C7.421,4.51,10.643,2.939,15.783,2.939z
		"/>
	<g opacity="0.2">
		<path d="M39.415,13.651c0.213,0.011,0.415-0.003,0.605-0.04C39.829,13.634,39.626,13.646,39.415,13.651z"/>
		<path d="M33.413,7.37C33.4,7.575,33.33,7.746,33.238,7.898c0.01,0.171,0.04,0.354,0.094,0.551c0.08-0.25,0.195-0.468,0.381-0.6
			c1.61-1.2,5.64,1.47,7.27,3.65c0.238,0.317,0.434,0.662,0.556,1.009c0.066-0.153,0.114-0.309,0.125-0.469
			c-0.04-0.521-0.32-1.061-0.68-1.54c-1.63-2.181-5.66-4.851-7.27-3.65c-0.135,0.096-0.241,0.231-0.321,0.392
			C33.396,7.283,33.41,7.33,33.413,7.37z"/>
		<path d="M36.801,14.3c-0.55,0.28-1.52,1.24-1.56,2.88c0.003,0.175,0.018,0.358,0.043,0.546c0.188-1.36,1.02-2.174,1.516-2.427
			c3.09-1.55,6.48,3.94,6.48,3.94c2.553,4.321,3.132,7.546,3.236,9.254c0.009-0.111,0.019-0.273,0.023-0.485
			c-0.02-1.52-0.43-4.98-3.26-9.771C43.283,18.24,39.893,12.75,36.801,14.3z"/>
		<path d="M18.211,13.399c5.36-2.109,7.74,2.04,7.74,2.04c0.549,0.876,0.838,1.703,0.946,2.485c0.02-0.161,0.052-0.319,0.054-0.485
			c-0.03-0.93-0.33-1.93-1-3c0,0-2.38-4.149-7.74-2.04c-2.18,0.86-12.1,5.021-17.67,17.511c0.088,0.003,0.261,0.006,0.483,0.006
			C6.667,18.216,16.092,14.235,18.211,13.399z"/>
		<path d="M24.513,1.899c0.77-0.529,3.73,0.431,5.6,1.62c1.931,1.229,2.871,2.395,3.178,3.305c0.066-0.135,0.112-0.284,0.123-0.454
			c-0.06-0.96-0.96-2.36-3.3-3.851c-1.87-1.189-4.83-2.149-5.6-1.62c-0.25,0.17-0.45,0.601-0.47,1.19
			c0.005,0.168,0.027,0.349,0.062,0.537C24.185,2.277,24.333,2.021,24.513,1.899z"/>
		<path d="M31.763,18.13c-1.41-0.14-6.06-0.64-6.11,8.22c0.002,0.185,0.012,0.385,0.017,0.574c0.202-8.396,4.707-7.932,6.093-7.794
			c4.456,0.457,5.279,4.667,5.377,7.042c0.007-0.145,0.012-0.311,0.012-0.512C37.143,23.43,36.542,18.62,31.763,18.13z"/>
		<path d="M15.783,3.939c4.729,0,9.793,1.595,10.506,4.154c0.04-0.164,0.076-0.327,0.083-0.484c-0.13-2.859-5.55-4.67-10.59-4.67
			c-5.14,0-8.36,1.57-9.07,1.96C6.966,5.083,7.265,5.277,7.586,5.48C8.995,4.875,11.812,3.939,15.783,3.939z"/>
	</g>
</g>
</svg>
